<svg height="31" width="31" xmlns="http://www.w3.org/2000/svg">  <rect width="31" height="31" x="0" y="0" fill="#ffffff" />
  <rect width="1" height="1" x="1" y="1" fill="#000000" />
  <rect width="1" height="1" x="2" y="1" fill="#000000" />
  <rect width="1" height="1" x="3" y="1" fill="#000000" />
  <rect width="1" height="1" x="4" y="1" fill="#000000" />
  <rect width="1" height="1" x="5" y="1" fill="#000000" />
  <rect width="1" height="1" x="6" y="1" fill="#000000" />
  <rect width="1" height="1" x="7" y="1" fill="#000000" />
  <rect width="1" height="1" x="12" y="1" fill="#000000" />
  <rect width="1" height="1" x="14" y="1" fill="#000000" />
  <rect width="1" height="1" x="15" y="1" fill="#000000" />
  <rect width="1" height="1" x="16" y="1" fill="#000000" />
  <rect width="1" height="1" x="18" y="1" fill="#000000" />
  <rect width="1" height="1" x="19" y="1" fill="#000000" />
  <rect width="1" height="1" x="20" y="1" fill="#000000" />
  <rect width="1" height="1" x="23" y="1" fill="#000000" />
  <rect width="1" height="1" x="24" y="1" fill="#000000" />
  <rect width="1" height="1" x="25" y="1" fill="#000000" />
  <rect width="1" height="1" x="26" y="1" fill="#000000" />
  <rect width="1" height="1" x="27" y="1" fill="#000000" />
  <rect width="1" height="1" x="28" y="1" fill="#000000" />
  <rect width="1" height="1" x="29" y="1" fill="#000000" />
  <rect width="1" height="1" x="1" y="2" fill="#000000" />
  <rect width="1" height="1" x="7" y="2" fill="#000000" />
  <rect width="1" height="1" x="9" y="2" fill="#000000" />
  <rect width="1" height="1" x="11" y="2" fill="#000000" />
  <rect width="1" height="1" x="12" y="2" fill="#000000" />
  <rect width="1" height="1" x="14" y="2" fill="#000000" />
  <rect width="1" height="1" x="15" y="2" fill="#000000" />
  <rect width="1" height="1" x="16" y="2" fill="#000000" />
  <rect width="1" height="1" x="17" y="2" fill="#000000" />
  <rect width="1" height="1" x="19" y="2" fill="#000000" />
  <rect width="1" height="1" x="21" y="2" fill="#000000" />
  <rect width="1" height="1" x="23" y="2" fill="#000000" />
  <rect width="1" height="1" x="29" y="2" fill="#000000" />
  <rect width="1" height="1" x="1" y="3" fill="#000000" />
  <rect width="1" height="1" x="3" y="3" fill="#000000" />
  <rect width="1" height="1" x="4" y="3" fill="#000000" />
  <rect width="1" height="1" x="5" y="3" fill="#000000" />
  <rect width="1" height="1" x="7" y="3" fill="#000000" />
  <rect width="1" height="1" x="9" y="3" fill="#000000" />
  <rect width="1" height="1" x="12" y="3" fill="#000000" />
  <rect width="1" height="1" x="13" y="3" fill="#000000" />
  <rect width="1" height="1" x="15" y="3" fill="#000000" />
  <rect width="1" height="1" x="17" y="3" fill="#000000" />
  <rect width="1" height="1" x="18" y="3" fill="#000000" />
  <rect width="1" height="1" x="19" y="3" fill="#000000" />
  <rect width="1" height="1" x="21" y="3" fill="#000000" />
  <rect width="1" height="1" x="23" y="3" fill="#000000" />
  <rect width="1" height="1" x="25" y="3" fill="#000000" />
  <rect width="1" height="1" x="26" y="3" fill="#000000" />
  <rect width="1" height="1" x="27" y="3" fill="#000000" />
  <rect width="1" height="1" x="29" y="3" fill="#000000" />
  <rect width="1" height="1" x="1" y="4" fill="#000000" />
  <rect width="1" height="1" x="3" y="4" fill="#000000" />
  <rect width="1" height="1" x="4" y="4" fill="#000000" />
  <rect width="1" height="1" x="5" y="4" fill="#000000" />
  <rect width="1" height="1" x="7" y="4" fill="#000000" />
  <rect width="1" height="1" x="10" y="4" fill="#000000" />
  <rect width="1" height="1" x="15" y="4" fill="#000000" />
  <rect width="1" height="1" x="19" y="4" fill="#000000" />
  <rect width="1" height="1" x="20" y="4" fill="#000000" />
  <rect width="1" height="1" x="23" y="4" fill="#000000" />
  <rect width="1" height="1" x="25" y="4" fill="#000000" />
  <rect width="1" height="1" x="26" y="4" fill="#000000" />
  <rect width="1" height="1" x="27" y="4" fill="#000000" />
  <rect width="1" height="1" x="29" y="4" fill="#000000" />
  <rect width="1" height="1" x="1" y="5" fill="#000000" />
  <rect width="1" height="1" x="3" y="5" fill="#000000" />
  <rect width="1" height="1" x="4" y="5" fill="#000000" />
  <rect width="1" height="1" x="5" y="5" fill="#000000" />
  <rect width="1" height="1" x="7" y="5" fill="#000000" />
  <rect width="1" height="1" x="9" y="5" fill="#000000" />
  <rect width="1" height="1" x="10" y="5" fill="#000000" />
  <rect width="1" height="1" x="12" y="5" fill="#000000" />
  <rect width="1" height="1" x="14" y="5" fill="#000000" />
  <rect width="1" height="1" x="16" y="5" fill="#000000" />
  <rect width="1" height="1" x="17" y="5" fill="#000000" />
  <rect width="1" height="1" x="19" y="5" fill="#000000" />
  <rect width="1" height="1" x="23" y="5" fill="#000000" />
  <rect width="1" height="1" x="25" y="5" fill="#000000" />
  <rect width="1" height="1" x="26" y="5" fill="#000000" />
  <rect width="1" height="1" x="27" y="5" fill="#000000" />
  <rect width="1" height="1" x="29" y="5" fill="#000000" />
  <rect width="1" height="1" x="1" y="6" fill="#000000" />
  <rect width="1" height="1" x="7" y="6" fill="#000000" />
  <rect width="1" height="1" x="9" y="6" fill="#000000" />
  <rect width="1" height="1" x="11" y="6" fill="#000000" />
  <rect width="1" height="1" x="14" y="6" fill="#000000" />
  <rect width="1" height="1" x="16" y="6" fill="#000000" />
  <rect width="1" height="1" x="18" y="6" fill="#000000" />
  <rect width="1" height="1" x="20" y="6" fill="#000000" />
  <rect width="1" height="1" x="23" y="6" fill="#000000" />
  <rect width="1" height="1" x="29" y="6" fill="#000000" />
  <rect width="1" height="1" x="1" y="7" fill="#000000" />
  <rect width="1" height="1" x="2" y="7" fill="#000000" />
  <rect width="1" height="1" x="3" y="7" fill="#000000" />
  <rect width="1" height="1" x="4" y="7" fill="#000000" />
  <rect width="1" height="1" x="5" y="7" fill="#000000" />
  <rect width="1" height="1" x="6" y="7" fill="#000000" />
  <rect width="1" height="1" x="7" y="7" fill="#000000" />
  <rect width="1" height="1" x="9" y="7" fill="#000000" />
  <rect width="1" height="1" x="11" y="7" fill="#000000" />
  <rect width="1" height="1" x="13" y="7" fill="#000000" />
  <rect width="1" height="1" x="15" y="7" fill="#000000" />
  <rect width="1" height="1" x="17" y="7" fill="#000000" />
  <rect width="1" height="1" x="19" y="7" fill="#000000" />
  <rect width="1" height="1" x="21" y="7" fill="#000000" />
  <rect width="1" height="1" x="23" y="7" fill="#000000" />
  <rect width="1" height="1" x="24" y="7" fill="#000000" />
  <rect width="1" height="1" x="25" y="7" fill="#000000" />
  <rect width="1" height="1" x="26" y="7" fill="#000000" />
  <rect width="1" height="1" x="27" y="7" fill="#000000" />
  <rect width="1" height="1" x="28" y="7" fill="#000000" />
  <rect width="1" height="1" x="29" y="7" fill="#000000" />
  <rect width="1" height="1" x="9" y="8" fill="#000000" />
  <rect width="1" height="1" x="11" y="8" fill="#000000" />
  <rect width="1" height="1" x="12" y="8" fill="#000000" />
  <rect width="1" height="1" x="16" y="8" fill="#000000" />
  <rect width="1" height="1" x="17" y="8" fill="#000000" />
  <rect width="1" height="1" x="18" y="8" fill="#000000" />
  <rect width="1" height="1" x="1" y="9" fill="#000000" />
  <rect width="1" height="1" x="2" y="9" fill="#000000" />
  <rect width="1" height="1" x="4" y="9" fill="#000000" />
  <rect width="1" height="1" x="7" y="9" fill="#000000" />
  <rect width="1" height="1" x="8" y="9" fill="#000000" />
  <rect width="1" height="1" x="12" y="9" fill="#000000" />
  <rect width="1" height="1" x="14" y="9" fill="#000000" />
  <rect width="1" height="1" x="15" y="9" fill="#000000" />
  <rect width="1" height="1" x="23" y="9" fill="#000000" />
  <rect width="1" height="1" x="24" y="9" fill="#000000" />
  <rect width="1" height="1" x="25" y="9" fill="#000000" />
  <rect width="1" height="1" x="27" y="9" fill="#000000" />
  <rect width="1" height="1" x="28" y="9" fill="#000000" />
  <rect width="1" height="1" x="5" y="10" fill="#000000" />
  <rect width="1" height="1" x="9" y="10" fill="#000000" />
  <rect width="1" height="1" x="10" y="10" fill="#000000" />
  <rect width="1" height="1" x="13" y="10" fill="#000000" />
  <rect width="1" height="1" x="17" y="10" fill="#000000" />
  <rect width="1" height="1" x="21" y="10" fill="#000000" />
  <rect width="1" height="1" x="23" y="10" fill="#000000" />
  <rect width="1" height="1" x="26" y="10" fill="#000000" />
  <rect width="1" height="1" x="29" y="10" fill="#000000" />
  <rect width="1" height="1" x="2" y="11" fill="#000000" />
  <rect width="1" height="1" x="4" y="11" fill="#000000" />
  <rect width="1" height="1" x="6" y="11" fill="#000000" />
  <rect width="1" height="1" x="7" y="11" fill="#000000" />
  <rect width="1" height="1" x="9" y="11" fill="#000000" />
  <rect width="1" height="1" x="17" y="11" fill="#000000" />
  <rect width="1" height="1" x="18" y="11" fill="#000000" />
  <rect width="1" height="1" x="20" y="11" fill="#000000" />
  <rect width="1" height="1" x="21" y="11" fill="#000000" />
  <rect width="1" height="1" x="22" y="11" fill="#000000" />
  <rect width="1" height="1" x="25" y="11" fill="#000000" />
  <rect width="1" height="1" x="26" y="11" fill="#000000" />
  <rect width="1" height="1" x="27" y="11" fill="#000000" />
  <rect width="1" height="1" x="28" y="11" fill="#000000" />
  <rect width="1" height="1" x="1" y="12" fill="#000000" />
  <rect width="1" height="1" x="3" y="12" fill="#000000" />
  <rect width="1" height="1" x="5" y="12" fill="#000000" />
  <rect width="1" height="1" x="6" y="12" fill="#000000" />
  <rect width="1" height="1" x="8" y="12" fill="#000000" />
  <rect width="1" height="1" x="9" y="12" fill="#000000" />
  <rect width="1" height="1" x="10" y="12" fill="#000000" />
  <rect width="1" height="1" x="11" y="12" fill="#000000" />
  <rect width="1" height="1" x="14" y="12" fill="#000000" />
  <rect width="1" height="1" x="17" y="12" fill="#000000" />
  <rect width="1" height="1" x="19" y="12" fill="#000000" />
  <rect width="1" height="1" x="20" y="12" fill="#000000" />
  <rect width="1" height="1" x="25" y="12" fill="#000000" />
  <rect width="1" height="1" x="27" y="12" fill="#000000" />
  <rect width="1" height="1" x="28" y="12" fill="#000000" />
  <rect width="1" height="1" x="3" y="13" fill="#000000" />
  <rect width="1" height="1" x="7" y="13" fill="#000000" />
  <rect width="1" height="1" x="8" y="13" fill="#000000" />
  <rect width="1" height="1" x="9" y="13" fill="#000000" />
  <rect width="1" height="1" x="11" y="13" fill="#000000" />
  <rect width="1" height="1" x="13" y="13" fill="#000000" />
  <rect width="1" height="1" x="14" y="13" fill="#000000" />
  <rect width="1" height="1" x="16" y="13" fill="#000000" />
  <rect width="1" height="1" x="17" y="13" fill="#000000" />
  <rect width="1" height="1" x="18" y="13" fill="#000000" />
  <rect width="1" height="1" x="21" y="13" fill="#000000" />
  <rect width="1" height="1" x="22" y="13" fill="#000000" />
  <rect width="1" height="1" x="23" y="13" fill="#000000" />
  <rect width="1" height="1" x="26" y="13" fill="#000000" />
  <rect width="1" height="1" x="28" y="13" fill="#000000" />
  <rect width="1" height="1" x="29" y="13" fill="#000000" />
  <rect width="1" height="1" x="2" y="14" fill="#000000" />
  <rect width="1" height="1" x="3" y="14" fill="#000000" />
  <rect width="1" height="1" x="9" y="14" fill="#000000" />
  <rect width="1" height="1" x="13" y="14" fill="#000000" />
  <rect width="1" height="1" x="14" y="14" fill="#000000" />
  <rect width="1" height="1" x="20" y="14" fill="#000000" />
  <rect width="1" height="1" x="21" y="14" fill="#000000" />
  <rect width="1" height="1" x="22" y="14" fill="#000000" />
  <rect width="1" height="1" x="1" y="15" fill="#000000" />
  <rect width="1" height="1" x="2" y="15" fill="#000000" />
  <rect width="1" height="1" x="3" y="15" fill="#000000" />
  <rect width="1" height="1" x="4" y="15" fill="#000000" />
  <rect width="1" height="1" x="5" y="15" fill="#000000" />
  <rect width="1" height="1" x="7" y="15" fill="#000000" />
  <rect width="1" height="1" x="8" y="15" fill="#000000" />
  <rect width="1" height="1" x="9" y="15" fill="#000000" />
  <rect width="1" height="1" x="11" y="15" fill="#000000" />
  <rect width="1" height="1" x="12" y="15" fill="#000000" />
  <rect width="1" height="1" x="13" y="15" fill="#000000" />
  <rect width="1" height="1" x="15" y="15" fill="#000000" />
  <rect width="1" height="1" x="17" y="15" fill="#000000" />
  <rect width="1" height="1" x="18" y="15" fill="#000000" />
  <rect width="1" height="1" x="21" y="15" fill="#000000" />
  <rect width="1" height="1" x="23" y="15" fill="#000000" />
  <rect width="1" height="1" x="24" y="15" fill="#000000" />
  <rect width="1" height="1" x="25" y="15" fill="#000000" />
  <rect width="1" height="1" x="26" y="15" fill="#000000" />
  <rect width="1" height="1" x="27" y="15" fill="#000000" />
  <rect width="1" height="1" x="28" y="15" fill="#000000" />
  <rect width="1" height="1" x="29" y="15" fill="#000000" />
  <rect width="1" height="1" x="3" y="16" fill="#000000" />
  <rect width="1" height="1" x="5" y="16" fill="#000000" />
  <rect width="1" height="1" x="6" y="16" fill="#000000" />
  <rect width="1" height="1" x="8" y="16" fill="#000000" />
  <rect width="1" height="1" x="9" y="16" fill="#000000" />
  <rect width="1" height="1" x="11" y="16" fill="#000000" />
  <rect width="1" height="1" x="14" y="16" fill="#000000" />
  <rect width="1" height="1" x="15" y="16" fill="#000000" />
  <rect width="1" height="1" x="18" y="16" fill="#000000" />
  <rect width="1" height="1" x="21" y="16" fill="#000000" />
  <rect width="1" height="1" x="22" y="16" fill="#000000" />
  <rect width="1" height="1" x="23" y="16" fill="#000000" />
  <rect width="1" height="1" x="26" y="16" fill="#000000" />
  <rect width="1" height="1" x="28" y="16" fill="#000000" />
  <rect width="1" height="1" x="2" y="17" fill="#000000" />
  <rect width="1" height="1" x="6" y="17" fill="#000000" />
  <rect width="1" height="1" x="7" y="17" fill="#000000" />
  <rect width="1" height="1" x="8" y="17" fill="#000000" />
  <rect width="1" height="1" x="9" y="17" fill="#000000" />
  <rect width="1" height="1" x="10" y="17" fill="#000000" />
  <rect width="1" height="1" x="11" y="17" fill="#000000" />
  <rect width="1" height="1" x="17" y="17" fill="#000000" />
  <rect width="1" height="1" x="18" y="17" fill="#000000" />
  <rect width="1" height="1" x="19" y="17" fill="#000000" />
  <rect width="1" height="1" x="21" y="17" fill="#000000" />
  <rect width="1" height="1" x="24" y="17" fill="#000000" />
  <rect width="1" height="1" x="28" y="17" fill="#000000" />
  <rect width="1" height="1" x="5" y="18" fill="#000000" />
  <rect width="1" height="1" x="9" y="18" fill="#000000" />
  <rect width="1" height="1" x="11" y="18" fill="#000000" />
  <rect width="1" height="1" x="12" y="18" fill="#000000" />
  <rect width="1" height="1" x="13" y="18" fill="#000000" />
  <rect width="1" height="1" x="14" y="18" fill="#000000" />
  <rect width="1" height="1" x="15" y="18" fill="#000000" />
  <rect width="1" height="1" x="17" y="18" fill="#000000" />
  <rect width="1" height="1" x="18" y="18" fill="#000000" />
  <rect width="1" height="1" x="21" y="18" fill="#000000" />
  <rect width="1" height="1" x="22" y="18" fill="#000000" />
  <rect width="1" height="1" x="23" y="18" fill="#000000" />
  <rect width="1" height="1" x="24" y="18" fill="#000000" />
  <rect width="1" height="1" x="26" y="18" fill="#000000" />
  <rect width="1" height="1" x="29" y="18" fill="#000000" />
  <rect width="1" height="1" x="1" y="19" fill="#000000" />
  <rect width="1" height="1" x="4" y="19" fill="#000000" />
  <rect width="1" height="1" x="7" y="19" fill="#000000" />
  <rect width="1" height="1" x="9" y="19" fill="#000000" />
  <rect width="1" height="1" x="10" y="19" fill="#000000" />
  <rect width="1" height="1" x="17" y="19" fill="#000000" />
  <rect width="1" height="1" x="18" y="19" fill="#000000" />
  <rect width="1" height="1" x="22" y="19" fill="#000000" />
  <rect width="1" height="1" x="24" y="19" fill="#000000" />
  <rect width="1" height="1" x="25" y="19" fill="#000000" />
  <rect width="1" height="1" x="28" y="19" fill="#000000" />
  <rect width="1" height="1" x="29" y="19" fill="#000000" />
  <rect width="1" height="1" x="5" y="20" fill="#000000" />
  <rect width="1" height="1" x="6" y="20" fill="#000000" />
  <rect width="1" height="1" x="13" y="20" fill="#000000" />
  <rect width="1" height="1" x="15" y="20" fill="#000000" />
  <rect width="1" height="1" x="16" y="20" fill="#000000" />
  <rect width="1" height="1" x="18" y="20" fill="#000000" />
  <rect width="1" height="1" x="19" y="20" fill="#000000" />
  <rect width="1" height="1" x="21" y="20" fill="#000000" />
  <rect width="1" height="1" x="22" y="20" fill="#000000" />
  <rect width="1" height="1" x="24" y="20" fill="#000000" />
  <rect width="1" height="1" x="25" y="20" fill="#000000" />
  <rect width="1" height="1" x="28" y="20" fill="#000000" />
  <rect width="1" height="1" x="29" y="20" fill="#000000" />
  <rect width="1" height="1" x="1" y="21" fill="#000000" />
  <rect width="1" height="1" x="3" y="21" fill="#000000" />
  <rect width="1" height="1" x="5" y="21" fill="#000000" />
  <rect width="1" height="1" x="7" y="21" fill="#000000" />
  <rect width="1" height="1" x="9" y="21" fill="#000000" />
  <rect width="1" height="1" x="10" y="21" fill="#000000" />
  <rect width="1" height="1" x="12" y="21" fill="#000000" />
  <rect width="1" height="1" x="13" y="21" fill="#000000" />
  <rect width="1" height="1" x="14" y="21" fill="#000000" />
  <rect width="1" height="1" x="15" y="21" fill="#000000" />
  <rect width="1" height="1" x="20" y="21" fill="#000000" />
  <rect width="1" height="1" x="21" y="21" fill="#000000" />
  <rect width="1" height="1" x="22" y="21" fill="#000000" />
  <rect width="1" height="1" x="23" y="21" fill="#000000" />
  <rect width="1" height="1" x="24" y="21" fill="#000000" />
  <rect width="1" height="1" x="25" y="21" fill="#000000" />
  <rect width="1" height="1" x="27" y="21" fill="#000000" />
  <rect width="1" height="1" x="9" y="22" fill="#000000" />
  <rect width="1" height="1" x="11" y="22" fill="#000000" />
  <rect width="1" height="1" x="13" y="22" fill="#000000" />
  <rect width="1" height="1" x="14" y="22" fill="#000000" />
  <rect width="1" height="1" x="15" y="22" fill="#000000" />
  <rect width="1" height="1" x="17" y="22" fill="#000000" />
  <rect width="1" height="1" x="18" y="22" fill="#000000" />
  <rect width="1" height="1" x="19" y="22" fill="#000000" />
  <rect width="1" height="1" x="20" y="22" fill="#000000" />
  <rect width="1" height="1" x="21" y="22" fill="#000000" />
  <rect width="1" height="1" x="25" y="22" fill="#000000" />
  <rect width="1" height="1" x="27" y="22" fill="#000000" />
  <rect width="1" height="1" x="28" y="22" fill="#000000" />
  <rect width="1" height="1" x="29" y="22" fill="#000000" />
  <rect width="1" height="1" x="1" y="23" fill="#000000" />
  <rect width="1" height="1" x="2" y="23" fill="#000000" />
  <rect width="1" height="1" x="3" y="23" fill="#000000" />
  <rect width="1" height="1" x="4" y="23" fill="#000000" />
  <rect width="1" height="1" x="5" y="23" fill="#000000" />
  <rect width="1" height="1" x="6" y="23" fill="#000000" />
  <rect width="1" height="1" x="7" y="23" fill="#000000" />
  <rect width="1" height="1" x="9" y="23" fill="#000000" />
  <rect width="1" height="1" x="13" y="23" fill="#000000" />
  <rect width="1" height="1" x="14" y="23" fill="#000000" />
  <rect width="1" height="1" x="17" y="23" fill="#000000" />
  <rect width="1" height="1" x="18" y="23" fill="#000000" />
  <rect width="1" height="1" x="19" y="23" fill="#000000" />
  <rect width="1" height="1" x="21" y="23" fill="#000000" />
  <rect width="1" height="1" x="23" y="23" fill="#000000" />
  <rect width="1" height="1" x="25" y="23" fill="#000000" />
  <rect width="1" height="1" x="28" y="23" fill="#000000" />
  <rect width="1" height="1" x="1" y="24" fill="#000000" />
  <rect width="1" height="1" x="7" y="24" fill="#000000" />
  <rect width="1" height="1" x="10" y="24" fill="#000000" />
  <rect width="1" height="1" x="11" y="24" fill="#000000" />
  <rect width="1" height="1" x="12" y="24" fill="#000000" />
  <rect width="1" height="1" x="14" y="24" fill="#000000" />
  <rect width="1" height="1" x="15" y="24" fill="#000000" />
  <rect width="1" height="1" x="19" y="24" fill="#000000" />
  <rect width="1" height="1" x="21" y="24" fill="#000000" />
  <rect width="1" height="1" x="25" y="24" fill="#000000" />
  <rect width="1" height="1" x="26" y="24" fill="#000000" />
  <rect width="1" height="1" x="27" y="24" fill="#000000" />
  <rect width="1" height="1" x="29" y="24" fill="#000000" />
  <rect width="1" height="1" x="1" y="25" fill="#000000" />
  <rect width="1" height="1" x="3" y="25" fill="#000000" />
  <rect width="1" height="1" x="4" y="25" fill="#000000" />
  <rect width="1" height="1" x="5" y="25" fill="#000000" />
  <rect width="1" height="1" x="7" y="25" fill="#000000" />
  <rect width="1" height="1" x="10" y="25" fill="#000000" />
  <rect width="1" height="1" x="14" y="25" fill="#000000" />
  <rect width="1" height="1" x="17" y="25" fill="#000000" />
  <rect width="1" height="1" x="18" y="25" fill="#000000" />
  <rect width="1" height="1" x="21" y="25" fill="#000000" />
  <rect width="1" height="1" x="22" y="25" fill="#000000" />
  <rect width="1" height="1" x="23" y="25" fill="#000000" />
  <rect width="1" height="1" x="24" y="25" fill="#000000" />
  <rect width="1" height="1" x="25" y="25" fill="#000000" />
  <rect width="1" height="1" x="29" y="25" fill="#000000" />
  <rect width="1" height="1" x="1" y="26" fill="#000000" />
  <rect width="1" height="1" x="3" y="26" fill="#000000" />
  <rect width="1" height="1" x="4" y="26" fill="#000000" />
  <rect width="1" height="1" x="5" y="26" fill="#000000" />
  <rect width="1" height="1" x="7" y="26" fill="#000000" />
  <rect width="1" height="1" x="9" y="26" fill="#000000" />
  <rect width="1" height="1" x="10" y="26" fill="#000000" />
  <rect width="1" height="1" x="18" y="26" fill="#000000" />
  <rect width="1" height="1" x="19" y="26" fill="#000000" />
  <rect width="1" height="1" x="20" y="26" fill="#000000" />
  <rect width="1" height="1" x="21" y="26" fill="#000000" />
  <rect width="1" height="1" x="23" y="26" fill="#000000" />
  <rect width="1" height="1" x="24" y="26" fill="#000000" />
  <rect width="1" height="1" x="25" y="26" fill="#000000" />
  <rect width="1" height="1" x="26" y="26" fill="#000000" />
  <rect width="1" height="1" x="27" y="26" fill="#000000" />
  <rect width="1" height="1" x="1" y="27" fill="#000000" />
  <rect width="1" height="1" x="3" y="27" fill="#000000" />
  <rect width="1" height="1" x="4" y="27" fill="#000000" />
  <rect width="1" height="1" x="5" y="27" fill="#000000" />
  <rect width="1" height="1" x="7" y="27" fill="#000000" />
  <rect width="1" height="1" x="10" y="27" fill="#000000" />
  <rect width="1" height="1" x="11" y="27" fill="#000000" />
  <rect width="1" height="1" x="12" y="27" fill="#000000" />
  <rect width="1" height="1" x="13" y="27" fill="#000000" />
  <rect width="1" height="1" x="15" y="27" fill="#000000" />
  <rect width="1" height="1" x="18" y="27" fill="#000000" />
  <rect width="1" height="1" x="19" y="27" fill="#000000" />
  <rect width="1" height="1" x="20" y="27" fill="#000000" />
  <rect width="1" height="1" x="21" y="27" fill="#000000" />
  <rect width="1" height="1" x="25" y="27" fill="#000000" />
  <rect width="1" height="1" x="26" y="27" fill="#000000" />
  <rect width="1" height="1" x="27" y="27" fill="#000000" />
  <rect width="1" height="1" x="29" y="27" fill="#000000" />
  <rect width="1" height="1" x="1" y="28" fill="#000000" />
  <rect width="1" height="1" x="7" y="28" fill="#000000" />
  <rect width="1" height="1" x="9" y="28" fill="#000000" />
  <rect width="1" height="1" x="14" y="28" fill="#000000" />
  <rect width="1" height="1" x="15" y="28" fill="#000000" />
  <rect width="1" height="1" x="16" y="28" fill="#000000" />
  <rect width="1" height="1" x="17" y="28" fill="#000000" />
  <rect width="1" height="1" x="18" y="28" fill="#000000" />
  <rect width="1" height="1" x="20" y="28" fill="#000000" />
  <rect width="1" height="1" x="21" y="28" fill="#000000" />
  <rect width="1" height="1" x="22" y="28" fill="#000000" />
  <rect width="1" height="1" x="25" y="28" fill="#000000" />
  <rect width="1" height="1" x="28" y="28" fill="#000000" />
  <rect width="1" height="1" x="1" y="29" fill="#000000" />
  <rect width="1" height="1" x="2" y="29" fill="#000000" />
  <rect width="1" height="1" x="3" y="29" fill="#000000" />
  <rect width="1" height="1" x="4" y="29" fill="#000000" />
  <rect width="1" height="1" x="5" y="29" fill="#000000" />
  <rect width="1" height="1" x="6" y="29" fill="#000000" />
  <rect width="1" height="1" x="7" y="29" fill="#000000" />
  <rect width="1" height="1" x="9" y="29" fill="#000000" />
  <rect width="1" height="1" x="11" y="29" fill="#000000" />
  <rect width="1" height="1" x="18" y="29" fill="#000000" />
  <rect width="1" height="1" x="21" y="29" fill="#000000" />
  <rect width="1" height="1" x="22" y="29" fill="#000000" />
  <rect width="1" height="1" x="23" y="29" fill="#000000" />
  <rect width="1" height="1" x="24" y="29" fill="#000000" />
  <rect width="1" height="1" x="25" y="29" fill="#000000" />
  <rect width="1" height="1" x="26" y="29" fill="#000000" />
  <rect width="1" height="1" x="28" y="29" fill="#000000" />
</svg>